<?xml version="1.0" encoding="UTF-8"?>
<svg width="150px" height="170px" viewBox="0 0 150 170" version="1.1" xmlns="http://www.w3.org/2000/svg" xmlns:xlink="http://www.w3.org/1999/xlink">
    <title>shopify</title>
    <g id="Page-1" stroke="none" stroke-width="1" fill="none" fill-rule="evenodd">
        <g id="shopify" fill-rule="nonzero">
            <path d="M130.7,32.9 C130.6,32 129.8,31.6 129.2,31.5 C128.6,31.4 116.6,31.3 116.6,31.3 C116.6,31.3 106.5,21.5 105.5,20.5 C104.5,19.5 102.6,19.8 101.8,20 C101.8,20 99.9,20.6 96.7,21.6 C96.2,19.9 95.4,17.8 94.3,15.7 C90.7,8.8 85.5,5.2 79.1,5.2 C78.7,5.2 78.2,5.2 77.8,5.3 C77.6,5.1 77.4,4.9 77.2,4.6 C74.4,1.6 70.9,0.2 66.7,0.3 C58.5,0.5 50.4,6.4 43.7,17 C39,24.4 35.5,33.7 34.5,40.9 C25.1,43.8 18.5,45.8 18.4,45.9 C13.7,47.4 13.5,47.5 12.9,52 C12.4,55.3 0,151.4 0,151.4 L104.1,169.4 L149.2,158.2 C149.2,158.2 130.8,33.7 130.7,32.9 Z M91.5,23.2 C89.1,23.9 86.4,24.8 83.4,25.7 C83.3,21.6 82.8,15.8 80.9,10.8 C87.2,12 90.2,19 91.5,23.2 Z M78,27.4 C72.5,29.1 66.6,30.9 60.6,32.8 C62.3,26.4 65.5,20 69.4,15.8 C70.9,14.2 72.9,12.5 75.3,11.5 C77.6,16.2 78,22.9 78,27.4 L78,27.4 Z M66.8,5.8 C68.7,5.8 70.3,6.2 71.7,7.1 C69.5,8.2 67.3,9.9 65.3,12.1 C60.1,17.7 56.1,26.3 54.5,34.7 C49.5,36.2 44.7,37.7 40.2,39.1 C43.2,25.9 54.2,6.2 66.8,5.8 L66.8,5.8 Z" id="Shape" fill="#95BF47"></path>
            <path d="M129.2,31.5 C128.6,31.4 116.6,31.3 116.6,31.3 C116.6,31.3 106.5,21.5 105.5,20.5 C105.1,20.1 104.6,19.9 104.1,19.9 L104.1,169.4 L149.2,158.2 C149.2,158.2 130.8,33.8 130.7,32.9 C130.5,32 129.8,31.6 129.2,31.5 Z" id="Path" fill="#5E8E3E"></path>
            <path d="M79.1,54.7 L73.9,74.3 C73.9,74.3 68.1,71.6 61.1,72.1 C50.9,72.7 50.8,79.1 50.9,80.8 C51.5,89.6 74.5,91.5 75.8,112 C76.8,128.2 67.2,139.2 53.4,140.1 C36.8,141.1 27.7,131.4 27.7,131.4 L31.2,116.5 C31.2,116.5 40.4,123.4 47.7,123 C52.5,122.7 54.2,118.8 54,116 C53.3,104.6 34.5,105.2 33.3,86.5 C32.3,70.7 42.7,54.7 65.6,53.2 C74.6,52.4 79.1,54.7 79.1,54.7 L79.1,54.7 Z" id="Path" fill="#FFFFFF"></path>
        </g>
    </g>
</svg>