<?xml version="1.0" standalone="no"?>
<!DOCTYPE svg PUBLIC "-//W3C//DTD SVG 20010904//EN"
 "http://www.w3.org/TR/2001/REC-SVG-20010904/DTD/svg10.dtd">
<svg version="1.0" xmlns="http://www.w3.org/2000/svg"
 width="600.000000pt" height="600.000000pt" viewBox="0 0 600.000000 600.000000"
 preserveAspectRatio="xMidYMid meet">
<metadata>
Created by potrace 1.11, written by Peter Selinger 2001-2013
</metadata>
<g transform="translate(0.000000,600.000000) scale(0.100000,-0.100000)"
fill="#000000" stroke="none">
<path d="M3598 5995 c-2 -2 -32 -6 -68 -9 -36 -4 -77 -9 -90 -11 -14 -3 -38
-7 -55 -10 -36 -5 -44 -7 -164 -35 -350 -83 -722 -292 -986 -555 -115 -115
-130 -132 -217 -246 -54 -71 -171 -253 -173 -269 -1 -3 -15 -32 -32 -65 -41
-80 -85 -191 -119 -295 -26 -82 -37 -104 -52 -105 -35 -3 -230 -79 -332 -130
-160 -80 -216 -114 -349 -213 -95 -70 -127 -98 -231 -202 -287 -288 -474 -615
-574 -1002 -37 -143 -41 -160 -60 -316 -12 -97 -13 -413 -2 -492 3 -19 7 -61
10 -93 3 -32 8 -63 11 -68 3 -5 8 -21 9 -36 7 -47 46 -194 72 -268 14 -38 30
-84 35 -101 5 -16 22 -57 37 -90 16 -32 37 -77 48 -99 39 -86 168 -294 219
-352 5 -7 15 -18 20 -25 117 -151 217 -248 435 -421 8 -7 33 -23 55 -37 22
-13 42 -27 45 -31 8 -11 127 -76 235 -128 88 -42 128 -59 212 -92 87 -33 305
-85 436 -104 146 -20 440 -21 546 0 11 2 41 7 68 11 26 3 57 8 68 11 11 2 31
6 45 9 14 3 43 10 65 16 22 5 47 11 55 13 36 7 202 66 275 98 286 123 571 331
779 567 49 55 180 234 201 273 11 20 23 37 27 37 5 0 8 4 8 10 0 5 19 45 43
87 23 43 53 103 66 133 13 30 31 71 39 90 9 19 16 37 17 40 3 11 67 216 73
230 3 8 6 20 6 25 7 55 19 74 49 81 80 17 333 125 452 193 388 222 736 609
900 1001 15 36 32 76 38 90 6 14 11 28 12 33 2 4 3 8 5 10 1 1 3 9 5 17 2 8
18 60 34 115 17 55 33 115 36 132 2 18 9 52 14 75 5 24 13 70 17 103 10 77 10
462 0 540 -18 137 -71 343 -131 504 -24 64 -117 255 -127 259 -4 2 -8 8 -8 13
0 14 -92 159 -101 159 -5 0 -9 6 -9 13 0 7 -11 24 -25 39 -14 15 -25 31 -25
37 0 5 -3 11 -7 13 -5 2 -33 32 -63 68 -221 261 -530 481 -845 603 -82 31
-159 59 -177 63 -5 1 -9 2 -10 4 -2 1 -10 3 -18 5 -8 1 -35 8 -60 15 -25 7
-56 14 -70 16 -14 3 -38 7 -55 11 -49 11 -58 12 -105 18 -25 4 -61 8 -80 11
-41 5 -397 13 -402 9z m317 -279 c93 -7 235 -29 293 -45 17 -5 32 -7 32 -4 0
3 6 1 13 -5 6 -5 26 -12 42 -15 49 -8 223 -76 330 -129 104 -51 287 -170 364
-235 214 -182 404 -434 505 -668 21 -49 42 -99 47 -110 26 -61 82 -271 93
-350 27 -185 27 -430 0 -580 -5 -27 -32 -156 -38 -180 -2 -8 -27 -90 -41 -135
-12 -38 -73 -176 -106 -240 -54 -106 -64 -122 -155 -246 -75 -102 -218 -255
-310 -331 -126 -105 -366 -248 -507 -301 -33 -12 -60 -22 -60 -22 -1 0 -2 71
-2 158 -1 140 -4 194 -19 323 -15 122 -79 371 -121 464 -7 17 -16 41 -20 55
-12 39 -85 187 -135 275 -168 291 -407 546 -690 733 -86 57 -390 217 -390 206
0 -3 -6 -2 -12 3 -7 4 -17 8 -23 10 -5 1 -44 14 -85 28 -98 34 -242 70 -330
81 -25 3 -52 7 -60 9 -84 23 -504 22 -542 -1 -15 -10 -8 26 18 89 158 375 404
663 762 892 28 19 52 32 52 29 0 -3 12 4 28 14 80 58 377 170 494 187 23 4 45
8 49 11 3 2 24 6 45 9 21 2 50 7 64 10 14 3 59 7 100 10 41 4 75 7 76 8 4 4
149 -1 239 -7z m-1449 -1520 c48 -6 158 -26 229 -41 103 -21 314 -102 425
-162 64 -35 260 -160 270 -172 3 -3 30 -26 60 -51 60 -48 183 -171 243 -241
112 -133 264 -391 316 -539 13 -36 27 -74 32 -85 34 -80 81 -306 95 -455 10
-106 2 -395 -11 -408 -2 -3 -15 -6 -27 -7 -13 -2 -36 -6 -53 -9 -50 -10 -205
-20 -295 -19 -91 0 -237 10 -248 17 -4 2 -32 7 -62 10 -30 4 -80 13 -110 22
-30 8 -64 16 -75 18 -24 4 -165 51 -220 74 -149 61 -376 198 -490 294 -69 59
-213 204 -255 256 -19 24 -43 53 -52 64 -10 12 -18 24 -18 28 0 4 -9 18 -21
31 -38 44 -165 269 -151 269 4 0 2 4 -4 8 -17 11 -120 292 -107 292 2 0 1 6
-4 13 -4 6 -8 17 -10 22 -15 74 -33 173 -40 221 -9 71 -10 370 -1 434 13 95
15 98 71 106 29 4 67 8 85 9 18 2 35 5 37 7 6 6 335 1 391 -6z m-863 -163
c-11 -108 -5 -367 11 -448 2 -11 7 -42 10 -70 4 -27 11 -63 16 -80 5 -16 11
-43 14 -60 16 -102 82 -282 163 -445 64 -127 122 -231 143 -250 3 -3 21 -27
40 -55 19 -27 39 -55 45 -61 5 -7 26 -31 45 -55 48 -61 204 -216 270 -271 83
-69 252 -188 267 -188 7 0 13 -3 13 -7 0 -5 10 -13 23 -19 12 -6 58 -30 102
-53 208 -110 511 -202 751 -228 85 -10 407 -10 491 0 l62 7 -13 -43 c-43 -138
-147 -376 -168 -385 -5 -2 -8 -8 -8 -14 0 -16 -107 -174 -172 -255 -96 -118
-236 -250 -379 -356 -32 -24 -170 -107 -224 -134 -165 -85 -362 -153 -510
-177 -134 -22 -167 -26 -175 -21 -5 3 -11 2 -13 -2 -6 -9 -287 -8 -357 1 -220
27 -394 76 -585 164 -92 43 -253 134 -265 151 -3 4 -12 10 -20 13 -25 9 -174
133 -249 207 -145 143 -284 337 -378 527 -30 61 -56 118 -57 125 -2 8 -8 26
-14 41 -6 15 -25 71 -41 125 -93 305 -109 622 -46 946 3 15 7 39 10 55 10 51
36 137 66 222 28 80 145 329 158 340 4 3 19 25 33 50 15 25 34 54 42 65 9 11
39 51 68 90 43 57 231 253 280 290 7 6 36 27 63 48 28 20 56 41 62 47 61 52
377 216 420 219 8 1 10 -15 6 -56z"/>
</g>
</svg>
